# xmcd
#
# Track frame offsets:
#	150
#	16008
#	34225
#	51229
#	62277
#	79851
#	99886
#	119104
#	136737
#	156500
#	174302
#	190809
#	209251
#	222956
#	235031
#	256716
#	275102
#
# Disc length: 3920 seconds
#
# Revision: 0
# Processed by: cddbd v1.4PL0 Copyright (c) Steve Scherf et al.
# Submitted via: audiograbber 1.82.02
#
DISCID=e60f4e11
DTITLE=G-Unit - Beg 4 Mercy
DYEAR=2003
DGENRE=Rap
TTITLE0=G-Unit - G-Unit
TTITLE1=G-Unit - Poppin Them Tags
TTITLE2=G-Unit - My Buddy
TTITLE3=G-Unit - I'm So Hood
TTITLE4=G-Unit - Stunt 101
TTITLE5=G-Unit - Wanna Get to Know You
TTITLE6=G-Unit - Groupie Love
TTITLE7=G-Unit - Better Ask Somebody
TTITLE8=G-Unit - Footsteps
TTITLE9=G-Unit - Eye for an Eye
TTITLE10=G-Unit - Smile
TTITLE11=G-Unit - Baby You Got
TTITLE12=G-Unit - Salute You
TTITLE13=G-Unit - Beg for Mercy Feat. Dr Dre
TTITLE14=G-Unit - G'd Up
TTITLE15=G-Unit - Lay You Down
TTITLE16=G-Unit - Gangsta Shit
EXTD=
EXTT0=
EXTT1=
EXTT2=
EXTT3=
EXTT4=
EXTT5=
EXTT6=
EXTT7=
EXTT8=
EXTT9=
EXTT10=
EXTT11=
EXTT12=
EXTT13=
EXTT14=
EXTT15=
EXTT16=
PLAYORDER=
